# xmcd
#
# Track frame offsets:
#	150
#	10895
#	23239
#	34829
#	54953
#	68043
#	92875
#	107012
#	132712
#	149707
#	172180
#	183768
#
# Disc length: 2579
#
# Revision: 1
# Processed by: cddbd v1.5.1PL0 Copyright (c) Steve Scherf et al.
# Submitted via: CDex 1.50beta9
# Normalized: r0:TRMNUM
#
DISCID=aa0a110c
DTITLE=Lohues and The Louisiana Blues Club - Ja, boeh
DYEAR=2003
DGENRE=Blues
TTITLE0=Janine
TTITLE1=Stiekumste verdriet
TTITLE2=Ja boeh
TTITLE3=Regenblues
TTITLE4=Wachten op een hittegolf
TTITLE5=Prachtig mooi(mar wat he'j der an)
TTITLE6=Daor knap ie nie van op
TTITLE7=Van 't verstand
TTITLE8=Ach and wee
TTITLE9=Hoogste tied veur de blues
TTITLE10='t ien of 't ander
TTITLE11=Picknickweer
EXTD=YEAR: 2003
EXTT0=
EXTT1=
EXTT2=
EXTT3=
EXTT4=
EXTT5=
EXTT6=
EXTT7=
EXTT8=
EXTT9=
EXTT10=
EXTT11=
PLAYORDER=
